<?xml version="1.0" standalone="no"?>
<!DOCTYPE svg PUBLIC "-//W3C//DTD SVG 20010904//EN"
 "http://www.w3.org/TR/2001/REC-SVG-20010904/DTD/svg10.dtd">
<svg version="1.0" xmlns="http://www.w3.org/2000/svg"
 width="512.000000pt" height="512.000000pt" viewBox="0 0 512.000000 512.000000"
 preserveAspectRatio="xMidYMid meet">
<metadata>
Created by potrace 1.14, written by Peter Selinger 2001-2017
</metadata>
<g transform="translate(0.000000,512.000000) scale(0.100000,-0.100000)"
fill="#000000" stroke="none">
<path d="M2515 4039 c-106 -14 -195 -64 -259 -145 -47 -60 -71 -124 -70 -186
l1 -37 -41 3 c-129 10 -217 -77 -222 -218 l-3 -70 -40 -15 c-21 -9 -53 -28
-70 -43 l-30 -27 -53 24 c-116 54 -246 16 -318 -93 -26 -39 -34 -66 -49 -157
0 -6 -34 -10 -74 -11 -122 -1 -223 -65 -267 -167 -70 -160 33 -298 222 -301
38 -1 68 -2 68 -4 0 -1 -11 -25 -25 -52 l-25 -50 85 6 86 7 -45 -85 c-76 -142
-137 -312 -80 -221 10 15 60 83 111 150 89 116 95 122 119 113 66 -25 176 -4
266 51 l48 29 26 -51 c31 -62 95 -128 148 -153 58 -27 142 -31 191 -8 l39 18
38 -47 c20 -26 51 -55 67 -65 l31 -18 -26 -27 c-19 -19 -24 -33 -19 -48 3 -12
11 -21 16 -21 12 0 54 41 60 57 3 9 19 8 59 -1 60 -14 140 -12 170 4 36 19 32
9 -25 -54 -30 -34 -175 -215 -175 -219 0 -3 44 -6 98 -7 53 -1 113 -3 132 -5
19 -2 66 -4 104 -4 50 -1 67 -4 63 -13 -3 -7 -60 -148 -127 -313 -66 -165
-125 -309 -129 -320 -5 -11 -18 -45 -30 -75 l-20 -55 22 29 c36 48 340 431
347 436 28 24 360 446 360 459 0 4 -42 9 -92 11 -51 1 -124 3 -163 5 -38 1
-85 3 -102 4 l-33 1 28 56 c27 55 27 55 62 48 82 -17 213 -5 259 24 43 27 80
73 87 108 l6 33 57 -28 c98 -49 204 -66 284 -45 79 20 146 74 172 137 13 32
20 37 48 38 71 1 112 17 161 59 57 51 77 91 83 172 7 93 -19 165 -79 227 -64
65 -135 94 -233 95 l-81 1 14 27 c7 15 13 45 14 67 0 32 7 46 41 77 105 100
118 259 27 351 -39 40 -90 57 -145 50 l-42 -6 2 42 c4 77 -34 136 -111 172
-45 21 -69 26 -137 26 -45 0 -106 -5 -136 -11 -69 -13 -71 -13 -71 5 0 22 -36
89 -62 118 -90 95 -268 77 -340 -36 -21 -32 -28 -37 -29 -22 -1 41 -10 71 -32
114 -35 69 -104 95 -212 80z"/>
<path d="M1106 2498 c-58 -56 -68 -81 -39 -93 13 -4 25 2 40 22 27 33 66 113
59 120 -2 3 -30 -19 -60 -49z"/>
<path d="M4060 2292 c-53 -52 -67 -92 -30 -92 14 0 31 18 53 53 64 100 55 114
-23 39z"/>
<path d="M1616 2165 c-54 -54 -62 -77 -30 -89 16 -6 67 59 90 114 19 44 2 37
-60 -25z"/>
<path d="M3760 1972 c-53 -52 -67 -92 -30 -92 14 0 31 18 53 53 64 100 55 114
-23 39z"/>
<path d="M3480 1963 c-56 -53 -70 -88 -39 -96 16 -4 29 7 60 55 34 54 48 88
35 88 -3 0 -28 -21 -56 -47z"/>
<path d="M2676 1831 c-41 -33 -76 -74 -76 -89 0 -20 26 -32 41 -19 30 24 92
137 76 137 -2 0 -21 -13 -41 -29z"/>
<path d="M1786 1737 c-31 -29 -56 -61 -56 -70 0 -25 28 -32 49 -13 20 18 75
125 68 132 -2 3 -30 -19 -61 -49z"/>
<path d="M3211 1634 c-34 -31 -51 -54 -51 -70 0 -59 68 -3 108 89 17 39 2 34
-57 -19z"/>
<path d="M4061 1634 c-34 -31 -51 -54 -51 -70 0 -34 33 -32 58 4 31 43 63 112
53 112 -5 0 -32 -21 -60 -46z"/>
<path d="M1291 1419 c-53 -52 -60 -69 -38 -88 14 -11 28 0 65 50 19 25 43 89
33 89 -4 0 -31 -23 -60 -51z"/>
<path d="M2424 1416 c-38 -37 -53 -58 -48 -70 9 -25 40 -19 62 12 32 46 63
112 52 112 -6 0 -36 -24 -66 -54z"/>
<path d="M3268 1181 c-50 -50 -60 -83 -26 -89 16 -3 62 55 86 111 18 42 -4 34
-60 -22z"/>
</g>
</svg>
